name Walk1.mot
datacolumns 19
datarows 27
range 2.15000000 2.28000000
endheader

                time	   L_ground_force_vx	   L_ground_force_vy	   L_ground_force_vz	   L_ground_force_px	   L_ground_force_py	   L_ground_force_pz	   R_ground_force_vx	   R_ground_force_vy	   R_ground_force_vz	   R_ground_force_px	   R_ground_force_py	   R_ground_force_pz	   L_ground_torque_x	   L_ground_torque_y	   L_ground_torque_z	   R_ground_torque_x	   R_ground_torque_y	   R_ground_torque_z	
          2.15000000	         -0.00008693	          0.00177028	         -0.00086507	         -0.00015323	          0.00000000	         -0.00002510	        -24.48782657	        545.04698991	        -32.19980626	          0.12820697	          0.00000000	          0.09657468	          0.00000000	          0.00009323	          0.00000000	          0.00000000	          0.39322733	          0.00000000	
          2.15500000	         -0.00190198	         -0.00492923	         -0.00066184	         -0.00010222	          0.00000000	         -0.00001673	        -22.17081378	        539.51869312	        -31.94468560	          0.12942719	          0.00000000	          0.09709606	          0.00000000	          0.00007168	          0.00000000	          0.00000000	          0.41905552	          0.00000000	
          2.16000000	         -0.00291551	         -0.00883566	         -0.00047918	         -0.00006142	          0.00000000	         -0.00001004	        -19.91515282	        534.42826230	        -31.69356196	          0.13066368	          0.00000000	          0.09763071	          0.00000000	          0.00005220	          0.00000000	          0.00000000	          0.45127495	          0.00000000	
          2.16500000	         -0.00333488	         -0.01064198	         -0.00032414	         -0.00003040	          0.00000000	         -0.00000496	        -17.71373907	        529.78253635	        -31.44458116	          0.13191224	          0.00000000	          0.09817329	          0.00000000	          0.00003557	          0.00000000	          0.00000000	          0.48917275	          0.00000000	
          2.17000000	         -0.00334007	         -0.01095869	         -0.00019908	         -0.00000810	          0.00000000	         -0.00000131	        -15.56112080	        525.58452243	        -31.19955509	          0.13316900	          0.00000000	          0.09871787	          0.00000000	          0.00002210	          0.00000000	          0.00000000	          0.53149073	          0.00000000	
          2.17500000	         -0.00307924	         -0.01029508	         -0.00010314	          0.00000684	          0.00000000	          0.00000114	        -13.45422217	        521.83411087	        -30.96451572	          0.13443200	          0.00000000	          0.09925868	          0.00000000	          0.00001171	          0.00000000	          0.00000000	          0.57672118	          0.00000000	
          2.18000000	         -0.00266844	         -0.00905531	         -0.00003346	          0.00001588	          0.00000000	          0.00000262	        -11.39210434	        518.52642116	        -30.74833571	          0.13569931	          0.00000000	          0.09978868	          0.00000000	          0.00000412	          0.00000000	          0.00000000	          0.62340037	          0.00000000	
          2.18500000	         -0.00219396	         -0.00754411	          0.00001387	          0.00002042	          0.00000000	          0.00000336	         -9.37452106	        515.65264588	        -30.55976758	          0.13696789	          0.00000000	          0.10030082	          0.00000000	         -0.00000107	          0.00000000	          0.00000000	          0.67021172	          0.00000000	
          2.19000000	         -0.00171617	         -0.00597835	          0.00004313	          0.00002172	          0.00000000	          0.00000357	         -7.40112637	        513.20451173	        -30.40599187	          0.13823459	          0.00000000	          0.10079073	          0.00000000	         -0.00000431	          0.00000000	          0.00000000	          0.71580369	          0.00000000	
          2.19500000	         -0.00127405	         -0.00450145	          0.00005848	          0.00002083	          0.00000000	          0.00000342	         -5.47048433	        511.17767388	        -30.29316270	          0.13949738	          0.00000000	          0.10125689	          0.00000000	         -0.00000605	          0.00000000	          0.00000000	          0.75889964	          0.00000000	
          2.20000000	         -0.00088976	         -0.00319833	          0.00006370	          0.00001862	          0.00000000	          0.00000306	         -3.58008679	        509.57174917	        -30.22647776	          0.14075476	          0.00000000	          0.10170058	          0.00000000	         -0.00000669	          0.00000000	          0.00000000	          0.79816979	          0.00000000	
          2.20500000	         -0.00057295	         -0.00210971	          0.00006201	          0.00001572	          0.00000000	          0.00000258	         -1.72742722	        508.38900205	        -30.21060852	          0.14200547	          0.00000000	          0.10212576	          0.00000000	         -0.00000657	          0.00000000	          0.00000000	          0.83254011	          0.00000000	
          2.21000000	         -0.00032448	         -0.00124475	          0.00005602	          0.00001262	          0.00000000	          0.00000207	          0.08983799	        507.63026448	        -30.25111920	          0.14324869	          0.00000000	          0.10253489	          0.00000000	         -0.00000597	          0.00000000	          0.00000000	          0.86170953	          0.00000000	
          2.21500000	         -0.00013947	         -0.00059162	          0.00004775	          0.00000964	          0.00000000	          0.00000158	          1.87397514	        507.29610773	        -30.35396747	          0.14448390	          0.00000000	          0.10292707	          0.00000000	         -0.00000512	          0.00000000	          0.00000000	          0.88594526	          0.00000000	
          2.22000000	         -0.00000980	         -0.00012600	          0.00003867	          0.00000696	          0.00000000	          0.00000114	          3.62674626	        507.38903990	        -30.52498825	          0.14570958	          0.00000000	          0.10329891	          0.00000000	         -0.00000416	          0.00000000	          0.00000000	          0.90589179	          0.00000000	
          2.22500000	          0.00007413	          0.00018257	          0.00002979	          0.00000469	          0.00000000	          0.00000077	          5.34983016	        507.91275175	        -30.76924830	          0.14692565	          0.00000000	          0.10364621	          0.00000000	         -0.00000322	          0.00000000	          0.00000000	          0.92206211	          0.00000000	
          2.23000000	          0.00012209	          0.00036600	          0.00002174	          0.00000287	          0.00000000	          0.00000047	          7.04459173	        508.87124902	        -31.09104475	          0.14813480	          0.00000000	          0.10396370	          0.00000000	         -0.00000237	          0.00000000	          0.00000000	          0.93470219	          0.00000000	
          2.23500000	          0.00014319	          0.00045469	          0.00001485	          0.00000147	          0.00000000	          0.00000024	          8.71173874	        510.26766124	        -31.49361329	          0.14933903	          0.00000000	          0.10424697	          0.00000000	         -0.00000163	          0.00000000	          0.00000000	          0.94433850	          0.00000000	
          2.24000000	          0.00014540	          0.00047560	          0.00000927	          0.00000046	          0.00000000	          0.00000007	         10.35101585	        512.10575929	        -31.97821106	          0.15054195	          0.00000000	          0.10449468	          0.00000000	         -0.00000103	          0.00000000	          0.00000000	          0.95178713	          0.00000000	
          2.24500000	          0.00013531	          0.00045140	          0.00000495	         -0.00000023	          0.00000000	         -0.00000004	         11.96124655	        514.39189676	        -32.54333358	          0.15175080	          0.00000000	          0.10470747	          0.00000000	         -0.00000056	          0.00000000	          0.00000000	          0.95799307	          0.00000000	
          2.25000000	          0.00011814	          0.00040018	          0.00000179	         -0.00000065	          0.00000000	         -0.00000011	         13.54012841	        517.13320512	        -33.18326874	          0.15297379	          0.00000000	          0.10488675	          0.00000000	         -0.00000022	          0.00000000	          0.00000000	          0.96398343	          0.00000000	
          2.25500000	          0.00009779	          0.00033568	         -0.00000038	         -0.00000087	          0.00000000	         -0.00000014	         15.08489641	        520.33552156	        -33.88735319	          0.15421689	          0.00000000	          0.10503413	          0.00000000	          0.00000002	          0.00000000	          0.00000000	          0.97112520	          0.00000000	
          2.26000000	          0.00007700	          0.00026777	         -0.00000174	         -0.00000094	          0.00000000	         -0.00000015	         16.59267406	        524.00290736	        -34.63989104	          0.15547942	          0.00000000	          0.10515171	          0.00000000	          0.00000017	          0.00000000	          0.00000000	          0.98117287	          0.00000000	
          2.26500000	          0.00005758	          0.00020305	         -0.00000247	         -0.00000091	          0.00000000	         -0.00000015	         18.06131211	        528.13842312	        -35.42095344	          0.15675680	          0.00000000	          0.10524256	          0.00000000	          0.00000026	          0.00000000	          0.00000000	          0.99593112	          0.00000000	
          2.27000000	          0.00004058	          0.00014548	         -0.00000275	         -0.00000082	          0.00000000	         -0.00000013	         19.49085342	        532.74290842	        -36.20806539	          0.15804381	          0.00000000	          0.10530904	          0.00000000	          0.00000029	          0.00000000	          0.00000000	          1.01703087	          0.00000000	
          2.27500000	          0.00002646	          0.00009706	         -0.00000271	         -0.00000070	          0.00000000	         -0.00000011	         20.88486875	        537.81722957	        -36.97831707	          0.15933665	          0.00000000	          0.10535256	          0.00000000	          0.00000029	          0.00000000	          0.00000000	          1.04591401	          0.00000000	
          2.28000000	          0.00001532	          0.00005833	         -0.00000247	         -0.00000056	          0.00000000	         -0.00000009	         22.25303760	        543.36111622	        -37.70918305	          0.16063102	          0.00000000	          0.10537451	          0.00000000	          0.00000026	          0.00000000	          0.00000000	          1.08391708	          0.00000000	
